<?xml version="1.0" encoding="utf-8"?>
<!-- Generator: Adobe Illustrator 16.0.2, SVG Export Plug-In . SVG Version: 6.00 Build 0)  -->
<!DOCTYPE svg PUBLIC "-//W3C//DTD SVG 1.1//EN" "http://www.w3.org/Graphics/SVG/1.1/DTD/svg11.dtd">
<svg version="1.1" id="Layer_1" xmlns="http://www.w3.org/2000/svg" xmlns:xlink="http://www.w3.org/1999/xlink" x="0px" y="0px"
	 width="720px" height="720px" viewBox="0 0 720 720" enable-background="new 0 0 720 720" xml:space="preserve">
<g>
	<path fill="#009AB9" d="M327.219,332.377c-4.741,0-8.756,1.018-12.043,3.054c-3.289,2.036-5.849,6.214-7.684,12.544h40.603
		c-1.531-6.27-4.17-10.438-7.916-12.502C336.431,333.41,332.112,332.377,327.219,332.377z"/>
	<ellipse fill="#009AB9" cx="586.954" cy="362.167" rx="23.046" ry="29.788"/>
	<path fill="#009AB9" d="M294.291,412.273c-0.018-0.01-0.037-0.02-0.055-0.029c-5.355-2.772-10-6.415-13.928-10.933
		c-10.171-11.7-15.334-24.582-15.483-38.653c0-0.152,0-0.268,0-0.345s0-0.191,0-0.345c0-0.149,0-0.345,0-0.574
		c0-0.23,0-0.495,0-0.801c0.304-13.915,5.542-26.726,15.713-38.424c0.215-0.248,0.437-0.49,0.656-0.732
		c-1.191-1.523-2.521-2.915-4-4.167c-7.598-6.427-16.215-9.642-25.857-9.642c-1.171,0-2.339,0.038-3.506,0.109
		c-1.171,0.075-2.338,0.257-3.506,0.548c-5.992,0.876-11.761,2.924-17.311,6.136c-5.554,3.215-10.155,7.598-13.805,13.148
		c-2.777-7.742-6.831-13.148-12.161-16.216c-5.335-3.068-10.995-4.602-16.982-4.602c-0.876,0-1.719,0.038-2.521,0.109
		c-0.804,0.075-1.644,0.185-2.52,0.329c-6.43,0.733-12.566,2.777-18.407,6.136c-5.844,3.362-10.008,7.012-12.49,10.957v-14.243H110
		v103.209h41.634V354.96c0-4.382,1.277-7.741,3.835-10.08c2.554-2.335,5.369-3.578,8.436-3.725c0.144,0,0.253,0,0.329,0
		c0.072,0,0.182,0,0.329,0c3.359,0,6.389,1.133,9.094,3.396c2.701,2.267,4.054,5.664,4.054,10.189v58.507h43.168V354.96
		c0-4.235,1.349-7.375,4.054-9.422c2.701-2.044,5.659-3.068,8.875-3.068c3.359,0,6.355,1.024,8.984,3.068
		c2.629,2.047,3.944,5.115,3.944,9.203v58.507h25.263h16.591h7.689c0,0-0.001,0-0.002-0.001
		C295.604,412.937,294.943,412.61,294.291,412.273z"/>
	<path fill="#009AB9" d="M555.783,413.248c-6.226-2.875-11.551-6.854-15.971-11.937c-10.171-11.7-15.333-24.582-15.482-38.653
		c0-0.152,0-0.268,0-0.345s0-0.191,0-0.345c0-0.149,0-0.345,0-0.574c0-0.23,0-0.495,0-0.801
		c0.305-13.915,5.541-26.726,15.713-38.424c0.256-0.294,0.517-0.582,0.779-0.869c-1.165-1.471-2.464-2.815-3.899-4.03
		c-7.598-6.427-16.215-9.642-25.856-9.642c-1.171,0-2.339,0.038-3.507,0.109c-1.171,0.075-2.338,0.257-3.505,0.548
		c-5.992,0.876-11.762,2.924-17.312,6.136c-5.554,3.215-10.155,7.598-13.806,13.148c-2.776-7.742-6.83-13.148-12.161-16.216
		c-5.335-3.068-10.994-4.602-16.982-4.602c-0.876,0-1.719,0.038-2.521,0.109c-0.804,0.075-1.643,0.185-2.52,0.329
		c-6.431,0.733-12.565,2.777-18.406,6.136c-5.845,3.362-10.008,7.012-12.49,10.957v-14.243h-51.371
		c3.477,1.538,6.572,3.397,9.271,5.592c9.021,7.34,15.369,15.368,19.039,24.086c1.986,5.045,3.361,9.903,4.131,14.566
		c0.762,4.666,1.145,8.681,1.145,12.044v4.587h-80.975c0.459,6.424,2.37,11.32,5.735,14.681c3.362,3.367,7.111,5.428,11.241,6.194
		c0.608,0.154,1.26,0.269,1.948,0.341c0.69,0.081,1.337,0.115,1.95,0.115c3.518,0,6.729-0.915,9.636-2.75
		c2.903-1.836,4.663-4.204,5.275-7.111v-0.229h41.98c-1.532,9.634-6.996,18.159-16.401,25.576c-2.726,2.151-5.878,3.988-9.446,5.516
		h50.349V354.96c0-4.382,1.276-7.741,3.835-10.08c2.554-2.335,5.368-3.578,8.437-3.725c0.144,0,0.253,0,0.328,0
		c0.072,0,0.181,0,0.328,0c3.359,0,6.39,1.133,9.095,3.396c2.701,2.267,4.054,5.664,4.054,10.189v58.507h43.168V354.96
		c0-4.235,1.349-7.375,4.054-9.422c2.701-2.044,5.659-3.068,8.875-3.068c3.358,0,6.354,1.024,8.984,3.068
		c2.629,2.047,3.943,5.115,3.943,9.203v58.507H555.783z"/>
</g>
</svg>
